# xmcd
#
# Track frame offsets:
#	150
#	12533
#	29158
#	40509
#	60743
#	81345
#	95800
#	116661
#	133522
#	150080
#	166196
#	185470
#	202095
#	216794
#	230180
#	242759
#
# Disc length: 3503 seconds
#
# Revision: 0
# Processed by: cddbd v1.5.2PL0 Copyright (c) Steve Scherf et al.
# Submitted via: audiograbber 1.83.01
#
DISCID=df0dad10
DTITLE=SoloPianoChristmas.com - Christmas Whisperings - solo piano
DYEAR=2014
DGENRE=new age
TTITLE0=Michael Dulin - Joy to the World
TTITLE1=Gary Girouard - What Child is This
TTITLE2=Chad Lawson - The Holly and Ivy
TTITLE3=David Nevue - We Three Kings
TTITLE4=Joe Bongiorno - O Come Emmanuel
TTITLE5=Joe Yamada - Good King Wenceslas
TTITLE6=Christine Brown - Carole of the Bells
TTITLE7=Doug Hammer - In the Bleak Midwinter
TTITLE8=Joseph Akins - O Holy Night
TTITLE9=Tim Neumark - Away in a Manger
TTITLE10=Michele McLaughlin - Little Drummer Boy
TTITLE11=Brad Jacobsen - Deck the Halls
TTITLE12=Wayne Gratz - I Wander
TTITLE13=Greg Maroney - It Came Upon a Midnight Clear
TTITLE14=Louis Landon - Pachelbel's Canon in D
TTITLE15=Philip Wesley - O Christmas Tree
EXTD=
EXTT0=
EXTT1=
EXTT2=
EXTT3=
EXTT4=
EXTT5=
EXTT6=
EXTT7=
EXTT8=
EXTT9=
EXTT10=
EXTT11=
EXTT12=
EXTT13=
EXTT14=
EXTT15=
PLAYORDER=
